<svg width="128" height="128" viewBox="0 0 128 128" xmlns="http://www.w3.org/2000/svg">
  <!-- Background -->
  <rect width="128" height="128" rx="20" fill="#1a1a2e"/>
  
  <!-- Card shape -->
  <rect x="20" y="25" width="88" height="78" rx="8" fill="#16213e" stroke="#0f3460" stroke-width="2"/>
  
  <!-- Stats bars -->
  <rect x="30" y="85" width="20" height="8" rx="4" fill="#4fc3f7"/>
  <rect x="54" y="85" width="20" height="8" rx="4" fill="#ff7043"/>
  <rect x="78" y="85" width="20" height="8" rx="4" fill="#66bb6a"/>
  
  <!-- Card design -->
  <circle cx="40" cy="45" r="8" fill="#0f3460"/>
  <circle cx="64" cy="45" r="8" fill="#0f3460"/>
  <circle cx="88" cy="45" r="8" fill="#0f3460"/>
  
  <!-- Anime star -->
  <polygon points="64,35 66,41 72,41 67,45 69,51 64,47 59,51 61,45 56,41 62,41" fill="#ffd700"/>
  
  <!-- Text/Numbers -->
  <text x="34" y="75" font-family="Arial, sans-serif" font-size="10" fill="#4fc3f7" text-anchor="middle">12</text>
  <text x="58" y="75" font-family="Arial, sans-serif" font-size="10" fill="#ff7043" text-anchor="middle">8</text>
  <text x="82" y="75" font-family="Arial, sans-serif" font-size="10" fill="#66bb6a" text-anchor="middle">5</text>
</svg>
